<svg xmlns="http://www.w3.org/2000/svg" version="1.0" width="628pt" height="692" viewBox="0 0 628 519"><path d="M176.207 22.75c.571.688.645 1.257.165 1.265-.479.009-.197.442.628.964.825.521 1.5 1.408 1.5 1.971 0 .953 3.278 5.441 6.321 8.655.727.767.952 1.409.5 1.427-.451.017.053.692 1.12 1.5 1.068.807 1.53 1.468 1.028 1.468-.503 0 .094.706 1.325 1.568 1.232.863 2.01 1.941 1.728 2.396-.281.454.19 1.095 1.047 1.424.857.329 1.276 1.054.931 1.612s.074 1.283.931 1.612c.857.329 1.338.953 1.069 1.388-.269.435.248 1.073 1.149 1.419.9.345 1.397.868 1.103 1.162-.294.294.767 1.959 2.357 3.7 1.59 1.74 2.891 3.739 2.891 4.442 0 .702.477 1.277 1.059 1.277s.798.422.479.939c-.319.516.217 1.402 1.191 1.969.974.567 1.365 1.045.868 1.062-.497.016.135.93 1.403 2.03 1.268 1.1 1.928 2 1.466 2-.462 0 .453 1.35 2.034 3 1.581 1.65 2.479 3 1.996 3-.483 0-.005.661 1.063 1.468 1.067.808 1.554 1.483 1.08 1.5-.473.018.202.917 1.5 1.999 1.299 1.081 2.045 1.981 1.659 2-.386.018.393 1.215 1.731 2.659 1.338 1.444 2.22 2.972 1.958 3.395-.262.423.261 1.052 1.162 1.398.9.345 1.363.903 1.027 1.238-.336.336 1.167 2.63 3.34 5.099 2.173 2.468 3.705 4.886 3.404 5.373-.301.487.154 1.154 1.011 1.483.857.329 1.361.916 1.12 1.305-.241.39 1.332 2.644 3.494 5.01 2.163 2.365 3.715 4.652 3.449 5.082-.265.43.218 1.05 1.075 1.379.857.329 1.278 1.051.935 1.605-.342.554-.222 1.007.267 1.007.49 0 2.344 2.025 4.122 4.5 1.777 2.475 2.892 4.5 2.478 4.5-.414 0 .12.661 1.188 1.468 1.067.808 1.535 1.483 1.038 1.5-.497.018.135.932 1.403 2.032s1.9 2.007 1.403 2.015c-.497.009-.403.346.207.75.611.404 1.86 2.198 2.776 3.985.916 1.788 2.179 3.25 2.806 3.25.628 0 .901.241.606.535-.294.294.756 1.917 2.334 3.606 1.577 1.689 2.868 3.698 2.868 4.465 0 .767.477 1.394 1.059 1.394s.81.403.506.895c-.305.493.183 1.178 1.084 1.524.9.345 1.397.868 1.103 1.162-.294.294.767 1.959 2.357 3.7 1.59 1.74 2.891 3.739 2.891 4.442 0 .702.477 1.277 1.059 1.277s.81.403.506.895c-.305.493.147 1.164 1.004 1.493.857.329 1.278 1.051.935 1.605-.342.554-.176 1.007.37 1.007.545 0 1.242.788 1.548 1.75.306.963 1.704 2.988 3.107 4.5 1.404 1.513 2.223 2.75 1.82 2.75-.402 0 .142.661 1.21 1.468 1.067.808 1.554 1.483 1.08 1.5-.473.018.202.917 1.5 1.999 1.299 1.081 2.045 1.981 1.659 2-.386.018.393 1.215 1.731 2.659 1.338 1.444 2.22 2.972 1.958 3.395-.262.423.201 1.029 1.028 1.346.827.318 1.387.927 1.245 1.355-.142.428 1.316 2.737 3.241 5.131 1.924 2.394 3.499 4.773 3.499 5.286 0 .514.675 1.361 1.5 1.882.825.522 1.05.97.5.995-.55.026-.126.708.941 1.516 1.068.807 1.675 1.468 1.349 1.468-.326 0 .711 1.396 2.305 3.102 1.594 1.706 2.665 3.478 2.38 3.938-.284.46.28 1.301 1.254 1.868.974.567 1.434 1.045 1.021 1.062-.412.016.038.861 1 1.878 2.512 2.652 5.158 6.512 5.136 7.493-.011.463.798 1.461 1.797 2.218 1 .758 1.462 1.392 1.028 1.409-.811.033-.463.522 3.805 5.334 1.366 1.54 2.484 3.43 2.484 4.2 0 .769.788 1.857 1.75 2.418.963.561 1.312 1.033.777 1.05-.534.016.028.731 1.25 1.587 1.223.856 2.223 2.206 2.223 3s.45 1.443 1 1.443 1 .675 1 1.5.477 1.5 1.059 1.5.781.45.441 1-.029 1.007.691 1.015c.951.011.899.281-.191.985-.825.533-1.05.991-.5 1.016.55.026.126.708-.941 1.516-1.068.807-1.675 1.468-1.349 1.468.326 0-.711 1.396-2.305 3.102-1.594 1.706-2.648 3.506-2.342 4 .305.494.121.898-.409.898-.529 0-2.36 2.475-4.067 5.5-1.707 3.025-3.55 5.5-4.096 5.5-.545 0-.991.675-.991 1.5s-.525 1.5-1.167 1.5c-.641 0-.868.298-.504.662.717.718-3.897 7.335-6.024 8.638-.718.44-1.305 1.452-1.305 2.25 0 .797-.477 1.45-1.059 1.45s-.825.378-.54.84c.286.462-1.704 3.471-4.422 6.685-2.718 3.215-4.741 6.047-4.494 6.293.628.628-5.627 9.182-6.714 9.182-.489 0-.64.403-.336.895.305.493-.147 1.164-1.004 1.493-.857.329-1.306 1.005-.998 1.503.308.498-.789 2.349-2.437 4.113-1.648 1.764-2.996 3.61-2.996 4.102 0 .492-.477.894-1.059.894s-.798.422-.479.939c.319.516-.217 1.402-1.191 1.969-.974.567-1.321 1.052-.771 1.077.55.025.325.472-.5.994-.825.521-1.5 1.372-1.5 1.889 0 .518-1.204 2.293-2.676 3.945-1.471 1.651-2.419 3.258-2.106 3.571.312.313-.169.852-1.069 1.197-.901.346-1.413.991-1.139 1.435.274.444-.827 2.057-2.447 3.586s-2.718 3.147-2.441 3.596c.278.449-.196 1.085-1.053 1.414-.857.329-1.307 1.004-1 1.5.307.496-.143 1.171-1 1.5-.857.329-1.309 1-1.004 1.493.304.492.076.895-.506.895s-1.059.402-1.059.894-1.348 2.338-2.996 4.102c-1.648 1.764-2.796 3.531-2.551 3.927.244.396-.432 1.471-1.504 2.389-1.072.918-1.949 2.248-1.949 2.955 0 .708-1.35 2.765-3 4.572-1.65 1.806-3 3.707-3 4.223s-.525.938-1.167.938c-.641 0-.868.298-.504.662.717.718-3.897 7.335-6.024 8.638-.718.44-1.305 1.452-1.305 2.25 0 .797-.45 1.45-1 1.45s-.887.411-.75.914c.138.503-1.437 2.951-3.5 5.441-2.062 2.489-3.75 5.003-3.75 5.585 0 .583-.45 1.06-1 1.06s-1 .695-1 1.545-1.105 2.65-2.455 4-2.137 2.469-1.75 2.487c.388.017-.169.692-1.236 1.5-1.068.807-1.609 1.468-1.202 1.468.406 0-.654 2.025-2.357 4.5-1.703 2.475-3.524 4.5-4.048 4.5s-.952.675-.952 1.5-.477 1.5-1.059 1.5-.779.453-.437 1.007c.343.554-.078 1.276-.935 1.605-.857.329-1.309 1-1.004 1.493.304.492.076.895-.506.895s-1.059.671-1.059 1.492c0 .82-.9 2.053-2 2.74-1.1.687-2 1.816-2 2.509 0 .692-.477 1.259-1.059 1.259s-.779.453-.437 1.007c.343.554-.078 1.276-.935 1.605-.857.329-1.333.96-1.059 1.404.274.444-.827 2.057-2.447 3.586s-2.718 3.147-2.441 3.596c.278.449-.196 1.085-1.053 1.414-.857.329-1.307 1.004-1 1.5.307.496-.143 1.171-1 1.5-.857.329-1.338.953-1.069 1.388.269.435-.248 1.073-1.149 1.419-.9.345-1.382.883-1.071 1.194.311.312-.733 1.926-2.322 3.588-1.588 1.662-3.861 5.033-5.051 7.491-1.19 2.458-2.778 4.705-3.529 4.993-.752.289-1.116.931-.809 1.427.307.496-.146 1.172-1.006 1.502-.859.33-1.563 1.227-1.563 1.993s-.477 1.393-1.059 1.393-.8.419-.484.931c.317.512.138 1.201-.396 1.532-.535.33 24.789.579 56.274.553l57.247-.047 1.913-2.234c1.053-1.229 1.781-2.42 1.62-2.645-.162-.226.431-.816 1.316-1.312.886-.495 1.35-1.323 1.031-1.839-.319-.517-.103-.939.479-.939s1.059-.469 1.059-1.042c0-1.112.461-1.764 4.558-6.448 1.439-1.644 3.192-4.344 3.896-6 .704-1.655 2.444-4.247 3.866-5.76 1.421-1.512 2.268-2.764 1.882-2.78-.386-.017.095-.495 1.069-1.062.974-.567 1.51-1.453 1.191-1.969-.319-.517-.103-.939.479-.939s1.059-.575 1.059-1.277c0-.703 1.325-2.728 2.944-4.5 1.619-1.773 2.631-3.23 2.25-3.238-.382-.009-.019-.442.806-.964.825-.521 1.5-1.431 1.5-2.021 0-.59.675-1.5 1.5-2.021.825-.522 1.062-.955.527-.964-.534-.008.036-.721 1.267-1.583 1.232-.863 1.978-1.991 1.659-2.507-.319-.517.121-1.208.978-1.537.857-.329 1.307-1.004 1-1.5-.307-.496.143-1.171 1-1.5.857-.329 1.344-.944 1.082-1.367-.262-.423.594-1.923 1.901-3.333 1.307-1.411 2.16-2.781 1.895-3.045-.264-.265.471-.99 1.633-1.612 1.163-.622 1.848-1.562 1.523-2.088-.326-.527.109-1.226.966-1.555.857-.329 1.347-.938 1.09-1.353-.257-.416 1.288-2.715 3.433-5.109 2.146-2.394 3.68-4.709 3.41-5.146-.27-.437.21-1.063 1.067-1.392.857-.329 1.351-.932 1.098-1.341-.253-.409.425-1.693 1.506-2.854 1.081-1.16 1.965-2.553 1.965-3.094 0-.542 1-1.686 2.223-2.542 1.222-.856 1.784-1.571 1.25-1.589-.535-.017-.099-.692.968-1.5 1.068-.807 1.602-1.468 1.188-1.468-.414 0 .701-2.025 2.478-4.5 1.778-2.475 3.632-4.5 4.122-4.5.489 0 .64-.403.336-.895-.305-.493.147-1.164 1.004-1.493.857-.329 1.278-1.051.935-1.605-.342-.554-.145-1.007.437-1.007s1.059-.469 1.059-1.042c0-1.122.374-1.643 4.95-6.901 1.648-1.894 2.798-3.642 2.557-3.884-.622-.622 5.644-9.173 6.722-9.173.489 0 .64-.403.336-.895-.305-.493.183-1.178 1.084-1.524.9-.345 1.363-.902 1.028-1.238-.803-.803 5.347-9.339 6.743-9.358.594-.009.479-.396-.255-.862-1.006-.638-.797-.986.851-1.417 1.222-.319 1.892-1.045 1.521-1.646-.365-.591.037-1.343.894-1.672.857-.329 1.309-1 1.004-1.493-.304-.492-.076-.895.506-.895s1.059-.649 1.059-1.443.897-2.072 1.994-2.84c1.096-.768 1.707-1.683 1.357-2.033-.351-.35.1-.92 1-1.265.901-.346 1.387-1.035 1.08-1.531-.307-.496.143-1.171 1-1.5.857-.329 1.307-1.004 1-1.5-.307-.496.143-1.171 1-1.5.857-.329 1.322-.978 1.035-1.443-.287-.464.403-1.34 1.534-1.945s1.79-1.531 1.465-2.057c-.326-.527.112-1.227.972-1.557.859-.33 1.563-1.226 1.563-1.99 0-.765 1.627-3.192 3.616-5.393 1.989-2.202 3.227-4.017 2.75-4.033-.476-.017-.069-.495.905-1.062.974-.567 1.535-1.413 1.246-1.881-.289-.467.8-2.1 2.42-3.629 1.62-1.529 2.718-3.147 2.441-3.596-.278-.449.196-1.085 1.053-1.414.857-.329 1.307-1.004 1-1.5-.307-.496.143-1.171 1-1.5.857-.329 1.337-.955 1.067-1.391-.27-.437.799-2.174 2.374-3.86 1.576-1.687 2.635-3.297 2.353-3.578-.281-.282.226-.795 1.126-1.14.901-.346 1.418-.984 1.149-1.419-.269-.435.212-1.059 1.069-1.388.857-.329 1.307-1.004 1-1.5-.307-.496.179-1.185 1.08-1.531.9-.345 1.375-.89 1.054-1.211-.573-.573.149-1.689 3.464-5.358.916-1.015 1.414-2.097 1.107-2.405-.308-.308.177-.843 1.077-1.188.901-.346 1.436-.954 1.19-1.352-.246-.398.804-2.094 2.333-3.768 2.998-3.283 3.185-5.472.699-8.218-.867-.959-1.287-2.034-.932-2.389.355-.355-.092-.928-.992-1.273-.901-.346-1.389-1.031-1.084-1.524.304-.492.076-.895-.506-.895s-1.059-.627-1.059-1.393-.704-1.663-1.563-1.993c-.86-.33-1.334-.971-1.054-1.425.28-.453-.366-1.456-1.437-2.228-1.07-.771-1.946-1.978-1.946-2.682 0-.703-.477-1.279-1.059-1.279s-.779-.453-.437-1.007c.343-.554-.078-1.276-.935-1.605-.857-.329-1.338-.953-1.069-1.388.269-.435-.248-1.073-1.149-1.419-.9-.345-1.382-.883-1.071-1.194.311-.312-.74-1.933-2.337-3.604-1.597-1.671-2.659-3.434-2.36-3.918.299-.483-.157-1.148-1.014-1.477-.857-.329-1.338-.953-1.069-1.388.269-.435-.248-1.073-1.149-1.419-.9-.345-1.388-.877-1.084-1.182.305-.304-.797-1.844-2.449-3.422-1.651-1.578-2.707-3.347-2.347-3.93.361-.584-.045-1.33-.902-1.659-.857-.329-1.34-.949-1.074-1.379.265-.43-1.087-2.496-3.006-4.591-1.919-2.095-3.489-4.374-3.489-5.064 0-.69-.787-1.713-1.75-2.274-.962-.561-1.344-1.033-.847-1.05.497-.016-.135-.93-1.403-2.03-1.268-1.1-1.9-2.014-1.403-2.03.497-.017.106-.495-.868-1.062-.974-.567-1.508-1.456-1.187-1.977.322-.52-.116-1.214-.973-1.543-.857-.329-1.338-.953-1.069-1.388.269-.435-.212-1.059-1.069-1.388-.857-.329-1.292-1.028-.966-1.555.325-.526-.434-1.526-1.687-2.221-1.478-.821-1.751-1.29-.778-1.336.973-.046.7-.515-.778-1.336-1.253-.695-2.043-1.645-1.756-2.109.287-.465-.178-1.114-1.035-1.443-.857-.329-1.308-1.002-1.003-1.495.305-.493-.877-2.297-2.627-4.007-1.749-1.711-2.892-3.11-2.539-3.11.354 0-.453-1.182-1.791-2.626-1.338-1.444-2.207-2.991-1.931-3.438.276-.447-.295-1.277-1.269-1.844-.974-.567-1.459-1.045-1.077-1.062.381-.016-.61-1.457-2.203-3.201-1.594-1.745-2.665-3.548-2.381-4.008.284-.459-.184-1.104-1.041-1.433-.857-.329-1.309-1-1.004-1.493.304-.492.076-.895-.506-.895s-1.059-.627-1.059-1.393-.739-1.677-1.643-2.024c-.904-.346-1.388-.885-1.077-1.196.311-.312-.74-1.933-2.337-3.604-1.597-1.671-2.659-3.434-2.36-3.918.299-.483-.157-1.148-1.014-1.477-.857-.329-1.309-1-1.004-1.493.304-.492.098-.895-.458-.895s-2.404-2.025-4.107-4.5c-1.703-2.475-2.763-4.5-2.357-4.5.407 0-.134-.661-1.202-1.468-1.067-.808-1.586-1.483-1.152-1.5.434-.018-.167-1.044-1.336-2.282-3.29-3.482-6.179-7.747-5.271-7.78.45-.017.021-.495-.953-1.062-.974-.567-1.542-1.402-1.261-1.856.28-.453-1.26-2.76-3.423-5.125-2.162-2.366-3.734-4.622-3.492-5.013s-.923-2.169-2.587-3.951c-4.083-4.37-7.287-8.956-6.284-8.993.45-.017.021-.495-.953-1.062-.974-.567-1.508-1.456-1.187-1.977.322-.52-.116-1.214-.973-1.543-.857-.329-1.322-.978-1.035-1.443.287-.464-.403-1.34-1.534-1.945s-1.821-1.481-1.534-1.945c.287-.465-.178-1.114-1.035-1.443-.857-.329-1.306-1.005-.998-1.504.308-.498-.556-1.963-1.919-3.257-1.364-1.293-2.487-2.865-2.497-3.494-.009-.629-.692-1.402-1.517-1.719-.825-.316-1.5-1.264-1.5-2.107 0-.842-.477-1.531-1.059-1.531s-.798-.422-.479-.939c.319-.516-.217-1.402-1.191-1.969-.974-.567-1.459-1.045-1.077-1.062.381-.016-.61-1.457-2.203-3.201-1.594-1.745-2.665-3.548-2.381-4.008.284-.459-.184-1.104-1.041-1.433-.857-.329-1.309-1-1.004-1.493.304-.492.076-.895-.506-.895S303 41.373 303 40.607s-.704-1.663-1.563-1.993c-.86-.33-1.334-.971-1.054-1.425.28-.453-.366-1.456-1.437-2.228-1.07-.771-1.946-1.978-1.946-2.682 0-.703-.477-1.279-1.059-1.279s-.81-.403-.506-.895c.305-.493-.147-1.164-1.004-1.493-.857-.329-1.278-1.051-.935-1.605.342-.554.16-1.007-.405-1.007-.565 0-1.604-1.012-2.309-2.25L289.5 21.5h-57.165c-45.619 0-56.956.252-56.128 1.25" fill="#ffc107" stroke="#ffc107FF"/><path d="M26.341 22.257c-.257.416.233 1.026 1.09 1.355.857.329 1.338.953 1.069 1.388-.269.435.248 1.073 1.149 1.419.9.345 1.385.88 1.077 1.188-.307.308.191 1.39 1.107 2.405 3.483 3.855 4.651 5.447 4.167 5.681-.275.133.392 1.269 1.483 2.525 1.091 1.255 1.991 2.568 2 2.918.009.35 1.247 1.867 2.751 3.371 1.504 1.504 2.519 3.083 2.256 3.509-.263.426.222 1.043 1.079 1.372.857.329 1.292 1.028.966 1.555-.325.526.411 1.542 1.636 2.257 1.226.715 1.636 1.17.913 1.012-.723-.159.09 1.116 1.808 2.834 1.717 1.717 2.897 3.487 2.621 3.933-.276.446.199 1.08 1.056 1.409.857.329 1.278 1.051.935 1.605-.342.554-.134 1.007.462 1.007.596 0 1.511 1.125 2.034 2.5.523 1.375 1.438 2.5 2.034 2.5.596 0 .835.403.531.895-.305.493.147 1.164 1.004 1.493.857.329 1.307 1.004 1 1.5-.307.496.143 1.171 1 1.5.857.329 1.307 1.004 1 1.5-.307.496.179 1.185 1.08 1.531.9.345 1.356.909 1.012 1.253-.343.344.336 1.458 1.51 2.476 1.174 1.019 1.729 1.866 1.232 1.884-.497.017-.029.692 1.038 1.5C71.509 86.339 71.985 87 71.5 87c-.485 0-.009.661 1.059 1.468 1.067.808 1.648 1.483 1.29 1.5-.358.018.654 1.43 2.25 3.138 1.595 1.708 2.901 3.733 2.901 4.5 0 .767.477 1.394 1.059 1.394s.781.45.441 1-.141 1 .441 1 1.059.402 1.059.894 1.348 2.338 2.996 4.102c1.648 1.764 2.78 3.557 2.516 3.985-.265.428.699 1.957 2.14 3.398 1.441 1.442 2.36 2.621 2.041 2.621-.319 0 .723 1.427 2.316 3.171 1.594 1.745 2.667 3.545 2.385 4-.282.456-.035.829.547.829.582 0 1.059.627 1.059 1.393s.704 1.663 1.563 1.993c.86.33 1.313 1.006 1.006 1.502-.307.496.179 1.185 1.08 1.531.9.345 1.385.881 1.076 1.189-.515.516.962 2.701 3.977 5.885.662.698.985 1.487.719 1.753-.266.266.647 1.557 2.03 2.869 1.383 1.312 2.53 2.835 2.549 3.385.019.55 1.15 2.058 2.514 3.351 1.363 1.294 2.258 2.709 1.988 3.146-.27.436.21 1.062 1.067 1.391.857.329 1.292 1.028.966 1.555-.325.526.411 1.542 1.636 2.257 1.226.715 1.636 1.17.913 1.012-.723-.159.09 1.116 1.808 2.834 1.717 1.717 2.897 3.487 2.621 3.933-.276.446.199 1.08 1.056 1.409.857.329 1.278 1.051.935 1.605-.342.554-.134 1.007.462 1.007.596 0 1.511 1.125 2.034 2.5.523 1.375 1.438 2.5 2.034 2.5.596 0 .835.403.531.895-.305.493.147 1.164 1.004 1.493.857.329 1.278 1.051.935 1.605-.342.554-.145 1.007.437 1.007s1.059.689 1.059 1.531c0 .843.672 1.79 1.494 2.105.822.316 1.255.962.961 1.436-.293.474.385 1.436 1.506 2.136 1.122.7 2.039 1.84 2.039 2.533 0 .692.477 1.259 1.059 1.259s.81.403.506.895c-.305.493.183 1.178 1.084 1.524.9.345 1.407.858 1.126 1.14-.282.281.779 1.893 2.357 3.582 1.577 1.689 2.868 3.698 2.868 4.465 0 .767.477 1.394 1.059 1.394s.81.403.506.895c-.305.493.183 1.178 1.084 1.524.9.345 1.407.858 1.126 1.14-.282.281.777 1.891 2.353 3.578 1.575 1.686 2.648 3.416 2.384 3.844-.265.428.699 1.957 2.14 3.398 1.441 1.442 2.36 2.621 2.041 2.621-.319 0 .723 1.427 2.316 3.171 1.594 1.745 2.696 3.498 2.45 3.896-.246.398.253.992 1.11 1.321.857.329 1.307 1.004 1 1.5-.307.496.143 1.171 1 1.5.857.329 1.307 1.004 1 1.5-.307.496.179 1.185 1.08 1.531.9.345 1.381.884 1.069 1.197-.313.313.635 1.933 2.106 3.6 1.472 1.667 2.575 3.39 2.452 3.828-.122.438.882 1.845 2.233 3.127 1.351 1.281 2.464 2.643 2.474 3.027.009.385 1.146 1.918 2.527 3.407 1.38 1.49 2.302 2.917 2.048 3.171-.255.254.191 1.116.99 1.914 1.859 1.86 1.845 3.222-.042 3.946-.822.316-1.274.931-1.004 1.367.27.437-.625 1.852-1.988 3.146-1.364 1.293-2.487 2.928-2.497 3.632-.009.705-.689 1.54-1.511 1.855-.822.316-1.244.98-.937 1.476.307.496-.143 1.171-1 1.5-.857.329-1.337.955-1.067 1.391.27.437-.813 2.189-2.407 3.895s-2.604 3.116-2.246 3.132c.358.017-.146.495-1.12 1.062-.974.567-1.539 1.406-1.256 1.865.284.458-.185 1.102-1.042 1.431-.857.329-1.307 1.004-1 1.5.307.496-.143 1.171-1 1.5-.857.329-1.328.969-1.048 1.423.28.453-.342 1.439-1.383 2.189s-1.663 1.736-1.383 2.189c.28.454-.191 1.094-1.048 1.423-.857.329-1.338.953-1.069 1.388.269.435-.212 1.059-1.069 1.388-.857.329-1.306 1.005-.998 1.503.308.498-.73 2.286-2.305 3.972-1.576 1.687-2.635 3.297-2.353 3.578.281.282-.226.795-1.126 1.14-.901.346-1.418.984-1.149 1.419.269.435-.212 1.059-1.069 1.388-.857.329-1.278 1.051-.935 1.605.342.554.145 1.007-.437 1.007s-1.061.563-1.064 1.25c-.002.688-1.375 2.713-3.05 4.5-1.676 1.788-2.686 3.264-2.246 3.28.441.017.004.495-.97 1.062-.974.567-1.508 1.456-1.187 1.977.322.52-.116 1.214-.973 1.543-.857.329-1.322.978-1.035 1.443.287.464-.403 1.34-1.534 1.945s-1.79 1.531-1.465 2.057c.326.527-.109 1.226-.966 1.555-.857.329-1.307 1.004-1 1.5.307.496-.143 1.171-1 1.5-.857.329-1.332.963-1.056 1.409.276.446-.887 2.199-2.583 3.895-1.76 1.76-2.514 3.111-1.757 3.147.73.035.286.481-.987.992-1.273.51-2.063 1.335-1.756 1.832.307.497-.178 1.186-1.079 1.532-.9.345-1.35.915-.999 1.266.68.68-3.732 6.994-6.311 9.033-.848.67-1.173 1.233-.723 1.25.97.038-2.957 5.842-5.502 8.134-.979.88-1.498 1.882-1.155 2.226.344.344-.112.908-1.012 1.253-.901.346-1.424.975-1.162 1.398.262.423-.62 1.951-1.958 3.395s-2.117 2.641-1.731 2.659c.386.019-.36.919-1.659 2-1.298 1.082-1.973 1.981-1.5 1.999.474.017-.013.692-1.08 1.5-1.068.807-1.652 1.468-1.298 1.468.354 0-.452 1.182-1.79 2.626s-2.241 2.937-2.006 3.318c.235.38-.424 1.306-1.465 2.056-1.041.75-1.663 1.736-1.383 2.189.28.454-.191 1.094-1.048 1.423-.857.329-1.338.953-1.069 1.388.269.435-.212 1.059-1.069 1.388-.857.329-1.278 1.051-.935 1.605.342.554.145 1.007-.437 1.007S88 407.649 88 408.443s-.897 2.072-1.994 2.84c-1.096.768-1.707 1.683-1.357 2.033.351.35-.1.92-1 1.265-.901.346-1.418.984-1.149 1.419.269.435-.212 1.059-1.069 1.388-.857.329-1.278 1.051-.935 1.605.342.554.145 1.007-.437 1.007S79 420.671 79 421.492c0 .82-.9 2.053-2 2.74-1.1.687-2 1.816-2 2.509 0 .692-.477 1.259-1.059 1.259s-.781.45-.441 1 .141 1-.441 1-1.059.653-1.059 1.45c0 .798-.787 1.909-1.75 2.47-.962.561-1.312 1.033-.777 1.05.534.016-.036.736-1.267 1.598-1.232.863-1.997 1.96-1.702 2.439.296.479-.259 1.334-1.233 1.901-.974.567-1.403 1.045-.953 1.062 1.093.04-3.098 6.082-5.729 8.258-1.578 1.305-1.722 1.748-.589 1.813.851.049.498.488-.814 1.014-1.273.51-2.063 1.335-1.756 1.832.307.497-.142 1.172-.999 1.501-.857.329-1.306 1.005-.998 1.503.308.498-.744 2.301-2.338 4.007-1.594 1.706-2.604 3.116-2.246 3.132.358.017-.146.495-1.12 1.062-.974.567-1.508 1.456-1.187 1.977.322.52-.116 1.214-.973 1.543-.857.329-1.333.96-1.059 1.404.274.444-.827 2.057-2.447 3.586s-2.718 3.147-2.441 3.596c.278.449-.196 1.085-1.053 1.414-.857.329-1.344.944-1.082 1.367.262.423-.62 1.951-1.958 3.395s-2.117 2.641-1.731 2.659c.386.019-.36.919-1.659 2-1.298 1.082-1.973 1.981-1.5 1.997.474.017.064.495-.91 1.062-.974.567-1.539 1.406-1.256 1.865.284.458-.157 1.091-.979 1.407-.822.315-1.494.925-1.494 1.355 0 .429 25.537.668 56.75.53 55.001-.244 62.36-.643 60.722-3.295-.253-.409.24-1.013 1.097-1.342.857-.329 1.276-1.054.931-1.612s.074-1.283.931-1.612c.857-.329 1.338-.953 1.069-1.388-.269-.435.212-1.059 1.069-1.388.857-.329 1.295-1.023.973-1.543-.321-.521.213-1.41 1.187-1.977.974-.567 1.365-1.045.868-1.062-.497-.016.135-.93 1.403-2.03 1.268-1.1 1.982-2 1.585-2-1.026 0 3.476-6.24 5.641-7.818.994-.726 1.546-1.741 1.227-2.257-.319-.517.121-1.208.978-1.537.857-.329 1.338-.953 1.069-1.388-.269-.435.212-1.059 1.069-1.388.857-.329 1.306-1.005.998-1.503-.308-.498.744-2.301 2.338-4.007 1.594-1.706 2.656-3.102 2.36-3.102-.296 0 .642-1.179 2.083-2.621 1.441-1.441 2.412-2.959 2.156-3.372-.255-.414.842-2.119 2.439-3.79 1.597-1.671 2.648-3.292 2.337-3.604-.311-.311.171-.849 1.071-1.194.901-.346 1.418-.984 1.149-1.419-.269-.435.212-1.059 1.069-1.388.857-.329 1.313-.994 1.014-1.477-.299-.484.763-2.247 2.36-3.918 1.597-1.671 2.648-3.292 2.337-3.604-.311-.311.173-.85 1.077-1.196.904-.347 1.643-1.258 1.643-2.024s.477-1.393 1.059-1.393.81-.403.506-.895c-.305-.493.147-1.164 1.004-1.493.857-.329 1.287-1.036.956-1.572-.332-.536.315-1.548 1.436-2.248 1.122-.7 2.039-1.84 2.039-2.533 0-.692.477-1.259 1.059-1.259s.781-.45.441-1-.141-1 .441-1 1.059-.653 1.059-1.45c0-.798.788-1.909 1.75-2.47.963-.561 1.312-1.033.777-1.05-.534-.016.036-.736 1.267-1.598 1.232-.863 1.98-1.988 1.664-2.5-.317-.513-.077-.932.534-.932s1.768-1.575 2.572-3.5c.805-1.925 1.933-3.5 2.508-3.5.576 0 .787-.419.47-.932-.316-.512.432-1.637 1.664-2.5 1.231-.862 1.801-1.582 1.267-1.598-.535-.017-.176-.495.798-1.062.974-.567 1.544-1.398 1.266-1.847-.277-.449 1.288-2.853 3.479-5.342 2.191-2.489 3.984-5.019 3.984-5.622 0-.604.477-1.097 1.059-1.097s.825-.378.54-.84c-.286-.462 1.704-3.471 4.422-6.685 2.718-3.215 4.741-6.047 4.494-6.293-.628-.628 5.627-9.182 6.714-9.182.489 0 .609-.453.267-1.007-.343-.554.081-1.277.941-1.607.859-.33 1.563-1.204 1.563-1.941 0-.738 1.118-2.603 2.484-4.143 4.168-4.699 4.416-5.069 3.813-5.672-.321-.321.154-.866 1.054-1.211.901-.346 1.389-1.031 1.084-1.524-.304-.492-.076-.895.506-.895s1.061-.562 1.064-1.25c.002-.687 1.328-2.662 2.945-4.388 1.618-1.725 2.676-3.402 2.353-3.726-.324-.324.148-.872 1.048-1.217.901-.346 1.387-1.035 1.08-1.531-.307-.496.143-1.171 1-1.5.857-.329 1.338-.953 1.069-1.388-.269-.435.212-1.059 1.069-1.388.857-.329 1.287-1.036.956-1.572-.332-.536.315-1.548 1.436-2.248 1.122-.7 2.039-1.84 2.039-2.533 0-.692.477-1.259 1.059-1.259s.81-.403.506-.895c-.305-.493.147-1.164 1.004-1.493.857-.329 1.295-1.023.973-1.543-.321-.521.213-1.41 1.187-1.977.974-.567 1.333-1.045.798-1.062-.534-.016.036-.736 1.267-1.598 1.232-.863 1.98-1.988 1.664-2.5-.317-.513-.106-.932.47-.932.575 0 1.701-1.571 2.504-3.49.802-1.92 2.587-4.62 3.968-6 1.38-1.381 2.219-2.51 1.863-2.51-.355 0 .228-.661 1.296-1.468 1.067-.808 1.55-1.483 1.072-1.5-1.024-.038 4.165-7.168 6.064-8.332.718-.44 1.305-1.452 1.305-2.25 0-.797.477-1.45 1.059-1.45s.781-.45.441-1-.141-1 .441-1 1.059-.538 1.059-1.195c0-.658 1.211-2.46 2.692-4.006 2.649-2.764 3.88-5.799 2.352-5.799-.82 0-6.466-7.987-6.515-9.218-.016-.394-.816-1.637-1.779-2.761-.962-1.124-1.75-2.38-1.75-2.792 0-.411-.9-1.31-2-1.997s-2-1.92-2-2.74c0-.821-.477-1.492-1.059-1.492s-.779-.453-.437-1.007c.343-.554-.078-1.276-.935-1.605-.857-.329-1.338-.953-1.069-1.388.269-.435-.248-1.073-1.149-1.419-.9-.345-1.407-.858-1.126-1.14.282-.281-.777-1.891-2.353-3.578-1.575-1.686-2.644-3.423-2.374-3.86.27-.436-.21-1.062-1.067-1.391-.857-.329-1.307-1.004-1-1.5.307-.496-.179-1.185-1.08-1.531-.9-.345-1.351-.915-1-1.265.35-.35-.268-1.27-1.374-2.045-1.106-.774-1.793-1.759-1.528-2.188.265-.429-.515-1.852-1.734-3.162-1.218-1.31-2.107-2.715-1.975-3.122.132-.407-.768-1.299-2-1.984-1.471-.817-1.725-1.268-.74-1.315.956-.045.653-.541-.836-1.366-1.284-.713-2.119-1.512-1.855-1.777.265-.264-.601-1.648-1.924-3.075-1.323-1.428-2.178-2.822-1.901-3.099.277-.277-.401-1.137-1.507-1.912-1.106-.774-1.749-1.83-1.43-2.346.319-.517-.121-1.208-.978-1.537-.857-.329-1.338-.953-1.069-1.388.269-.435-.212-1.059-1.069-1.388-.857-.329-1.307-1.004-1-1.5.307-.496-.143-1.171-1-1.5-.857-.329-1.278-1.051-.935-1.605.342-.554.222-1.007-.267-1.007-1.127 0-7.638-8.989-6.541-9.03.447-.017.025-.489-.938-1.05-.962-.561-1.75-1.488-1.75-2.061 0-.572-1.561-2.865-3.47-5.095-1.908-2.229-3.261-4.391-3.005-4.804.255-.413-.237-1.019-1.094-1.348-.857-.329-1.295-1.023-.973-1.543.321-.521-.01-1.311-.737-1.758-1.474-.905-6.217-7.409-6.219-8.529-.001-.394-.789-1.637-1.752-2.761-.962-1.124-1.75-2.38-1.75-2.792 0-.411-.9-1.31-2-1.997s-2-1.92-2-2.74c0-.821-.477-1.492-1.059-1.492s-.798-.422-.479-.939c.319-.516-.217-1.402-1.191-1.969-.974-.567-1.365-1.045-.868-1.062.497-.016.025-.817-1.047-1.78-2.571-2.306-6.701-8.25-5.733-8.25.418 0-.114-.661-1.182-1.468-1.067-.808-1.517-1.483-1-1.5.518-.018.068-.693-1-1.5-1.067-.808-1.535-1.483-1.038-1.5.497-.018-.095-.898-1.316-1.956-1.22-1.059-2.185-2.296-2.145-2.75.041-.454-.696-1.726-1.638-2.826s-1.681-2.225-1.643-2.5c.039-.275-.777-1.093-1.812-1.818-1.035-.726-1.653-1.691-1.371-2.146.281-.454-.19-1.095-1.047-1.424-.857-.329-1.307-1.004-1-1.5.307-.496-.143-1.171-1-1.5-.857-.329-1.307-1.004-1-1.5.307-.496-.179-1.185-1.08-1.531-.9-.345-1.351-.915-1-1.265.35-.35-.268-1.27-1.374-2.045-1.106-.774-1.749-1.83-1.43-2.346.319-.517-.121-1.208-.978-1.537-.857-.329-1.309-1-1.004-1.493.304-.492.076-.895-.506-.895S182 81.373 182 80.607s-.739-1.677-1.643-2.024c-.904-.346-1.391-.882-1.083-1.19.307-.308-.191-1.354-1.107-2.324-2.538-2.687-5.077-6.461-5.03-7.479.023-.501-.673-1.311-1.547-1.8-.875-.489-1.59-1.542-1.59-2.34 0-.797-.39-1.45-.867-1.45-1.08 0-6.449-7.989-5.397-8.03.42-.017-.033-.495-1.007-1.062-.974-.567-1.524-1.431-1.222-1.919.302-.489-.312-1.349-1.364-1.912-1.052-.564-2.198-2.161-2.547-3.551-.349-1.389-1.076-2.526-1.615-2.526-.54 0-.981-.563-.981-1.25 0-.688-1.8-3.22-4-5.627-2.2-2.407-4-4.994-4-5.749 0-.756-.477-1.374-1.059-1.374s-.779-.453-.437-1.007c.343-.554-.078-1.276-.935-1.605-.857-.329-1.309-1-1.004-1.493.304-.492.076-.895-.506-.895S142 23.438 142 22.75c0-.986-12.185-1.25-57.595-1.25-31.678 0-57.806.341-58.064.757M325.311 23.5c.612 1.1 1.018 2.338.901 2.75-.116.413.238.75.788.75s1 .45 1 1 .788 1.868 1.75 2.928c3.403 3.75 4.32 5.072 3.539 5.104-.434.017.085.692 1.152 1.5 1.068.807 1.544 1.468 1.059 1.468-.485 0-.009.661 1.059 1.468 1.067.808 1.648 1.483 1.29 1.5-.358.018.654 1.43 2.25 3.138 1.595 1.708 2.901 3.733 2.901 4.5 0 .767.477 1.394 1.059 1.394s.806.41.496.911c-.31.501.789 2.188 2.441 3.747 1.652 1.56 3.004 3.399 3.004 4.089 0 .689.477 1.253 1.059 1.253s.823.382.535.849c-.289.466.36 1.797 1.441 2.958 1.081 1.16 1.965 2.325 1.965 2.589 0 .265 1.329 1.935 2.953 3.714 1.624 1.778 2.723 3.606 2.441 4.061-.282.456-.035.829.547.829.582 0 1.059.627 1.059 1.393s.704 1.663 1.563 1.993c.86.33 1.313 1.006 1.006 1.502-.307.496.143 1.171 1 1.5.857.329 1.278 1.051.935 1.605-.342.554-.174 1.007.375 1.007.548 0 2.207 2.224 3.686 4.942s3.307 5.179 4.062 5.468c.755.29 1.381 1.104 1.39 1.809.01.704 1.133 2.339 2.497 3.632 1.363 1.294 2.258 2.709 1.988 3.146-.27.436.21 1.062 1.067 1.391.857.329 1.292 1.028.966 1.555-.325.526.36 1.466 1.523 2.088 1.162.622 1.897 1.347 1.633 1.612-.265.264.588 1.634 1.895 3.045 1.307 1.41 2.163 2.91 1.901 3.333-.262.423.261 1.052 1.162 1.398.9.345 1.351.915 1 1.265-.35.35.268 1.27 1.374 2.045 1.106.774 1.749 1.83 1.43 2.346-.319.517.121 1.208.978 1.537.857.329 1.338.953 1.069 1.388-.269.435.212 1.059 1.069 1.388.857.329 1.278 1.051.935 1.605-.342.554-.145 1.007.437 1.007s1.059.567 1.059 1.259c0 .693.917 1.833 2.039 2.533 1.121.7 1.768 1.712 1.436 2.248-.331.536.099 1.243.956 1.572.857.329 1.307 1.004 1 1.5-.307.496.143 1.171 1 1.5.857.329 1.338.953 1.069 1.388-.269.435.248 1.073 1.149 1.419.9.345 1.407.858 1.126 1.14-.282.281.779 1.893 2.357 3.582 1.577 1.689 2.868 3.698 2.868 4.465 0 .767.477 1.394 1.059 1.394s.781.45.441 1-.141 1 .441 1 1.059.45 1.059 1 .788 1.868 1.75 2.928c3.406 3.753 4.123 4.866 3.523 5.465-.333.334-.081.607.56.607.642 0 1.167.653 1.167 1.45 0 .798.788 1.909 1.75 2.47.963.561 1.438 1.033 1.056 1.05-.381.016.61 1.457 2.203 3.201 1.594 1.745 2.667 3.545 2.385 4-.282.456-.035.829.547.829.582 0 1.059.627 1.059 1.393s.704 1.663 1.563 1.993c.86.33 1.313 1.006 1.006 1.502-.307.496.097 1.153.896 1.46.8.307 2.591 2.803 3.982 5.547 1.39 2.744 3.631 6.092 4.98 7.441 1.348 1.349 2.19 2.714 1.869 3.034-.32.321.155.866 1.055 1.211.901.346 1.418.984 1.149 1.419-.269.435.212 1.059 1.069 1.388.857.329 1.307 1.004 1 1.5-.307.496.143 1.171 1 1.5.857.329 1.331.965 1.053 1.414-.277.449.821 2.067 2.441 3.596 1.62 1.529 2.721 3.142 2.447 3.586-.274.444.202 1.075 1.059 1.404.857.329 1.278 1.051.935 1.605-.342.554-.145 1.007.437 1.007s1.059.567 1.059 1.259c0 .693.9 1.822 2 2.509 1.1.687 2 1.92 2 2.74 0 .821.477 1.492 1.059 1.492s.81.403.506.895c-.305.493.147 1.164 1.004 1.493.857.329 1.278 1.051.935 1.605-.342.554-.145 1.007.437 1.007s1.059.402 1.059.894 1.348 2.338 2.996 4.102c1.648 1.764 2.745 3.615 2.437 4.113-.308.498.141 1.174.998 1.503.857.329 1.338.953 1.069 1.388-.269.435.212 1.059 1.069 1.388.857.329 1.278 1.051.935 1.605-.342.554-.13 1.007.471 1.007 1.637 0 5.546 7.17 5.169 9.483-.363 2.229-4.779 8.555-6.86 9.828-.729.447-1.063 1.237-.742 1.758.322.52-.116 1.214-.973 1.543-.857.329-1.309 1-1.004 1.493.304.492.076.895-.506.895s-1.059.649-1.059 1.443-.897 2.072-1.994 2.84c-1.096.768-1.707 1.683-1.357 2.033.351.35-.1.92-1 1.265-.901.346-1.387 1.035-1.08 1.531.307.496-.143 1.171-1 1.5-.857.329-1.344.944-1.082 1.367.262.423-.62 1.951-1.958 3.395s-2.117 2.641-1.731 2.659c.386.019-.291.863-1.505 1.876-1.215 1.014-1.998 2.053-1.741 2.31.258.257-.64 1.663-1.994 3.124-1.355 1.461-2.159 2.657-1.788 2.657.371 0-.333.706-1.564 1.568-1.232.863-1.978 1.991-1.659 2.507.319.517-.121 1.208-.978 1.537-.857.329-1.351.932-1.098 1.341.253.409-.425 1.693-1.506 2.854-1.081 1.16-1.965 2.553-1.965 3.094 0 .542-1 1.686-2.223 2.542-1.222.856-1.784 1.571-1.25 1.589.535.017.099.692-.968 1.5-1.068.807-1.624 1.468-1.236 1.468 1.164 0-4.37 7.804-5.97 8.418-.814.312-1.198 1.024-.853 1.582s-.074 1.283-.931 1.612c-.857.329-1.309 1-1.004 1.493.304.492.076.895-.506.895s-1.059.469-1.059 1.042c0 1.112-.461 1.764-4.558 6.448-1.439 1.644-3.192 4.344-3.896 6-.704 1.655-2.444 4.248-3.866 5.76-1.421 1.513-2.268 2.764-1.882 2.78.386.017-.095.495-1.069 1.062-.974.567-1.539 1.406-1.256 1.865.284.458-.185 1.102-1.042 1.431-.857.329-1.325.974-1.041 1.433.284.46-.787 2.263-2.381 4.008-1.593 1.744-2.584 3.178-2.203 3.186.382.009.019.442-.806.964-.825.521-1.5 1.431-1.5 2.021 0 .59-.675 1.5-1.5 2.021-.825.522-1.062.955-.527.964.534.008-.036.721-1.267 1.583-1.232.863-1.978 1.991-1.659 2.507.319.517-.121 1.208-.978 1.537-.857.329-1.307 1.004-1 1.5.307.496-.143 1.171-1 1.5-.857.329-1.309 1-1.004 1.493.304.492.076.895-.506.895s-1.059.689-1.059 1.531c0 .843-.672 1.79-1.494 2.105-.822.316-1.259.954-.972 1.419.287.464-.403 1.34-1.534 1.945s-1.79 1.531-1.465 2.057c.326.527-.109 1.226-.966 1.555-.857.329-1.344.944-1.082 1.367.262.423-.641 1.974-2.006 3.447-1.364 1.472-2.481 3.056-2.481 3.519 0 .462-.704 1.111-1.563 1.441-.86.33-1.282 1.056-.937 1.614s-.074 1.283-.931 1.612c-.857.329-1.337.955-1.067 1.391.27.437-.625 1.852-1.988 3.146-1.364 1.293-2.487 2.928-2.497 3.632-.009.705-.689 1.54-1.511 1.855-.822.316-1.263.949-.979 1.407.283.459-.282 1.298-1.256 1.865s-1.406 1.045-.959 1.062c1.097.041-5.414 9.03-6.541 9.03-.489 0-.64.403-.336.895.305.493-.147 1.164-1.004 1.493-.857.329-1.278 1.051-.935 1.605.342.554.145 1.007-.437 1.007s-1.059.469-1.059 1.042c0 1.042-.961 2.405-4.25 6.03-.962 1.06-1.412 1.942-1 1.958.413.017-.047.495-1.021 1.062-.974.567-1.538 1.408-1.254 1.868.285.46-.786 2.232-2.38 3.938-1.594 1.706-2.604 3.116-2.246 3.134.358.017-.223.692-1.29 1.5-1.068.807-1.518 1.475-1 1.483.517.009.266.442-.559.964-.825.521-1.5 1.38-1.5 1.907 0 1.312-5.804 9.061-6.809 9.09-.445.013-.531.474-.191 1.024s.141 1-.441 1-1.059.689-1.059 1.531c0 .843-.672 1.79-1.494 2.105-.822.316-1.259.954-.972 1.419.287.464-.403 1.34-1.534 1.945s-1.79 1.531-1.465 2.057c.326.527-.109 1.226-.966 1.555-.857.329-1.307 1.004-1 1.5.307.496-.143 1.171-1 1.5-.857.329-1.34.949-1.074 1.379.266.431-.187 1.338-1.006 2.018-.819.68-1.489 1.518-1.489 1.863 0 .346 25.52.508 56.712.362l56.712-.267 3.286-3.483c1.807-1.916 2.949-3.498 2.538-3.516-.411-.017.126-.692 1.193-1.5 1.068-.807 1.544-1.468 1.059-1.468-.485 0-.009-.661 1.059-1.468 1.067-.808 1.608-1.483 1.201-1.5-.698-.03 1.11-2.543 4.061-5.644.727-.763.952-1.402.5-1.42-.451-.017.053-.692 1.12-1.5 1.068-.807 1.518-1.482 1-1.5-.517-.017-.067-.692 1-1.5 1.068-.807 1.53-1.468 1.028-1.468-.503 0 .094-.706 1.325-1.568 1.232-.863 1.978-1.991 1.659-2.507-.319-.517.121-1.208.978-1.537.857-.329 1.307-1.004 1-1.5-.307-.496.143-1.171 1-1.5.857-.329 1.338-.953 1.069-1.388-.269-.435.248-1.073 1.149-1.419.9-.345 1.407-.858 1.126-1.14-.282-.281.777-1.891 2.353-3.578 1.575-1.686 2.615-3.471 2.309-3.965-.305-.494-.056-.898.555-.898.611 0 1.727-1.462 2.48-3.25.753-1.787 2.955-5.022 4.892-7.188 1.937-2.166 3.33-4.249 3.095-4.628-.234-.379 1.366-2.726 3.557-5.215S489 424.7 489 424.097c0-.604.477-1.097 1.059-1.097s.781-.45.441-1-.141-1 .441-1 1.059-.591 1.059-1.313 1.332-2.589 2.96-4.148c1.627-1.56 3.888-4.812 5.024-7.228 1.135-2.416 2.726-4.646 3.535-4.956.808-.311 1.219-.971.912-1.467-.307-.496.143-1.171 1-1.5.857-.329 1.338-.953 1.069-1.388-.269-.435.248-1.073 1.149-1.419.9-.345 1.369-.897 1.04-1.225-.328-.329.435-2.116 1.696-3.971 1.261-1.856 2.59-3.077 2.954-2.713.363.364.661-.089.661-1.005 0-.917.477-1.667 1.059-1.667s.779-.453.437-1.007c-.343-.554.078-1.276.935-1.605.857-.329 1.338-.953 1.069-1.388-.269-.435.212-1.059 1.069-1.388.857-.329 1.328-.969 1.048-1.423-.28-.453.366-1.456 1.437-2.228 1.07-.771 1.946-1.978 1.946-2.682 0-.703.525-1.279 1.167-1.279.641 0 .88-.287.529-.637-.766-.767 2.996-6.334 5.53-8.181.994-.726 1.578-1.691 1.296-2.146-.281-.454.19-1.095 1.047-1.424.857-.329 1.276-1.054.931-1.612s.074-1.283.931-1.612c.857-.329 1.338-.953 1.069-1.388-.269-.435.248-1.073 1.149-1.419.9-.345 1.407-.858 1.126-1.14-.282-.281.777-1.891 2.353-3.578 1.575-1.686 2.664-3.39 2.419-3.786-.244-.396.432-1.471 1.504-2.389 1.072-.918 1.949-2.248 1.949-2.955 0-.708 1.35-2.765 3-4.572 1.65-1.806 3-3.707 3-4.223s.477-.938 1.059-.938.809-.404.504-.898c-.306-.494.748-2.294 2.342-4s2.656-3.102 2.36-3.102c-.296 0 .642-1.179 2.083-2.621 1.441-1.441 2.376-3.016 2.077-3.5-.299-.483-.066-.879.516-.879.582 0 1.059-.594 1.059-1.32 0-.725 1.119-2.292 2.486-3.481 1.367-1.189 3.448-4.209 4.625-6.711 1.176-2.502 2.979-5.138 4.007-5.858 1.028-.72 1.583-1.596 1.233-1.946-.351-.35.1-.92 1-1.265.901-.346 1.418-.984 1.149-1.419-.269-.435.212-1.059 1.069-1.388.857-.329 1.278-1.051.935-1.605-.342-.554-.145-1.007.437-1.007s1.059-.659 1.059-1.465c0-.805.9-1.946 2-2.535 1.1-.589 2-1.73 2-2.535 0-.806.477-1.465 1.059-1.465s.779-.453.437-1.007c-.343-.554.078-1.276.935-1.605.857-.329 1.309-1 1.004-1.493-.304-.492-.076-.895.506-.895s1.059-.576 1.059-1.279c0-.704.9-1.928 2-2.721 1.1-.793 2-2.017 2-2.721 0-.703.477-1.279 1.059-1.279s.798-.422.479-.939c-.319-.516.217-1.402 1.191-1.969.974-.567 1.38-1.045.902-1.062-.477-.016.298-1.56 1.724-3.429 2.235-2.93 2.391-3.567 1.13-4.613-.805-.668-1.246-1.566-.98-1.997.266-.43-.217-1.05-1.074-1.379-.857-.329-1.307-1.004-1-1.5.307-.496-.143-1.171-1-1.5-.857-.329-1.307-1.004-1-1.5.307-.496-.115-1.16-.937-1.476-.822-.315-1.502-1.15-1.511-1.855-.01-.704-1.133-2.339-2.497-3.632-1.363-1.294-2.258-2.709-1.988-3.146.27-.436-.21-1.062-1.067-1.391-.857-.329-1.307-1.004-1-1.5.307-.496-.179-1.185-1.08-1.531-.9-.345-1.351-.915-1-1.265.35-.35-.261-1.265-1.357-2.033-1.097-.768-1.994-2.046-1.994-2.84s-.477-1.443-1.059-1.443-.81-.403-.506-.895c.305-.493-.147-1.164-1.004-1.493-.857-.329-1.295-1.023-.973-1.543.321-.521-.213-1.41-1.187-1.977-.974-.567-1.399-1.045-.944-1.062.455-.016-.561-1.418-2.257-3.114-1.696-1.696-2.859-3.449-2.583-3.895.276-.446-.199-1.08-1.056-1.409-.857-.329-1.295-1.023-.973-1.543.321-.521.009-1.311-.693-1.758-2.03-1.289-6.74-8.003-6.079-8.664.33-.33-.137-.883-1.037-1.228-.901-.346-1.389-1.031-1.084-1.524.304-.492.076-.895-.506-.895s-1.059-.567-1.059-1.259c0-.693-.9-1.822-2-2.509-1.1-.687-2-1.92-2-2.74 0-.821-.477-1.492-1.059-1.492s-.779-.453-.437-1.007c.343-.554-.078-1.276-.935-1.605-.857-.329-1.309-1-1.004-1.493.304-.492.153-.895-.336-.895-.49 0-2.344-2.025-4.122-4.5-1.777-2.475-2.892-4.5-2.478-4.5.414 0-.12-.661-1.188-1.468-1.067-.808-1.517-1.483-1-1.5.518-.018.068-.693-1-1.5-1.067-.808-1.503-1.483-.968-1.5.534-.018-.028-.733-1.25-1.589-1.223-.856-2.223-2.136-2.223-2.845 0-.708-.889-2.093-1.976-3.077-1.087-.983-1.765-2.131-1.506-2.55.259-.419-.23-1.03-1.087-1.359-.857-.329-1.297-1.02-.978-1.537.319-.516-.427-1.644-1.659-2.507-1.231-.862-1.935-1.568-1.564-1.568s-.433-1.196-1.788-2.657c-1.354-1.461-2.239-2.879-1.967-3.151.271-.272-.287-1.065-1.241-1.763-.953-.697-1.734-1.652-1.734-2.122s-.997-1.924-2.215-3.232c-1.219-1.308-2.009-2.713-1.756-3.122.253-.409-.241-1.012-1.098-1.341-.857-.329-1.307-1.004-1-1.5.307-.496-.143-1.171-1-1.5-.857-.329-1.328-.969-1.048-1.423.28-.453-.366-1.456-1.437-2.228-1.07-.771-1.946-1.978-1.946-2.682 0-.703-.477-1.279-1.059-1.279s-.81-.403-.506-.895c.305-.493-.147-1.164-1.004-1.493-.857-.329-1.297-1.02-.978-1.537.319-.516-.233-1.531-1.227-2.257-2.3-1.677-6.629-7.808-5.544-7.85.45-.017-.056-.692-1.123-1.5-1.068-.807-1.518-1.482-1-1.5.517-.017.266-.58-.559-1.25-2.499-2.029-6.954-8.431-6.314-9.071.33-.33-.137-.883-1.037-1.228-.901-.346-1.389-1.031-1.084-1.524.304-.492.076-.895-.506-.895S487 92.598 487 92.106s-1.348-2.338-2.996-4.102c-1.648-1.764-2.745-3.615-2.437-4.113.308-.498-.141-1.174-.998-1.503-.857-.329-1.338-.953-1.069-1.388.269-.435-.248-1.073-1.149-1.419-.9-.345-1.407-.858-1.126-1.14.282-.281-.777-1.891-2.353-3.578-1.575-1.686-2.644-3.423-2.374-3.86.27-.436-.21-1.062-1.067-1.391-.857-.329-1.307-1.004-1-1.5.307-.496-.143-1.171-1-1.5-.857-.329-1.307-1.004-1-1.5.307-.496-.136-1.169-.984-1.494-.848-.325-2.015-1.948-2.592-3.605-.578-1.657-1.457-3.013-1.953-3.013s-.902-.653-.902-1.45c0-.798-.787-1.909-1.75-2.47-.962-.561-1.312-1.033-.777-1.05.534-.016-.036-.736-1.267-1.598-1.232-.863-2.01-1.941-1.728-2.396.281-.454-.19-1.095-1.047-1.424-.857-.329-1.307-1.004-1-1.5.307-.496-.179-1.185-1.08-1.531-.9-.345-1.351-.915-1-1.265.35-.35-.268-1.27-1.374-2.045-1.106-.774-1.768-1.799-1.473-2.278.296-.479-.056-1.235-.783-1.682-1.725-1.059-6.084-7.311-5.098-7.311.418 0-.114-.661-1.182-1.468-1.067-.808-1.571-1.483-1.12-1.5.452-.018.035-.819-.927-1.782-1.614-1.614-6.204-1.789-58.974-2.25-57.001-.498-57.219-.492-56.109 1.5" fill="#ffc107" stroke="#ffc107FF"/><path d="M323.987 22.975c.563 1.053 1.584 2.23 2.268 2.616.984.555.983.421-.005-.644-.687-.741-1.25-1.714-1.25-2.163 0-.449 25.65-.697 57-.55 31.35.146 57-.078 57-.499s-26.108-.744-58.019-.719c-56.824.045-57.997.086-56.994 1.959M175.153 496.395c-1.211 1.388 4.458 1.547 56.569 1.589 31.853.025 58.161-.2 58.461-.501.301-.3-25.27-.525-56.823-.499-40.908.034-57.297-.266-57.115-1.043.14-.599-.351-.395-1.092.454M439.209 495.037c-1.178 1.886-2.973 1.955-57.962 2.213l-56.747.267 57.009.241c56.936.242 57.012.239 58.32-1.855.72-1.154 1.149-2.258.952-2.455-.196-.196-.904.519-1.572 1.589M25 498.25c0 .828 115.356 1.061 116.183.234.284-.284-25.741-.622-57.834-.75-32.092-.129-58.349.104-58.349.516" fill="#ffc107" stroke="#ffc107FF"/><path d="M322.583 496.75c-.32.321-.583.958-.583 1.417 0 .458 26.213.726 58.25.595l58.25-.238-57.75-.512c-31.763-.282-57.713-.812-57.667-1.179.046-.366-.179-.404-.5-.083M25 20.75c0 .413 26.212.518 58.25.234l58.25-.516-58.25-.234c-32.037-.129-58.25.104-58.25.516M175.147 22.598c.744.853 1.241 1.067 1.103.476-.175-.753 16.539-1.148 56-1.323l56.25-.249-57.353-.228c-51.741-.205-57.221-.075-56 1.324M141.459 496.06c-.602.533-24.45 1.036-56.5 1.19l-55.459.267 55.685.242c47.447.205 55.805.029 56.5-1.191.546-.959.471-1.127-.226-.508M220.685 431.25l-2.814 4.25 2.814-4.25L223.5 427l-2.815 4.25M361.055 125.297c2.477 3.448 2.883 3.781 1.445 1.184-1.1-1.987-2.65-4.146-3.445-4.797-.795-.651.105.974 2 3.613" fill="#ffc107" stroke="#ffc107FF"/></svg>