<svg xmlns="http://www.w3.org/2000/svg" version="1.0" width="512.000000pt" height="512.000000pt" viewBox="0 0 512.000000 512.000000" preserveAspectRatio="xMidYMid meet">

<g transform="translate(0.000000,512.000000) scale(0.100000,-0.100000)" fill="#ffc107" stroke="none">
<path d="M2330 5110 c-494 -48 -950 -230 -1350 -538 -195 -150 -448 -432 -594 -662 -63 -99 -186 -351 -230 -471 -49 -134 -102 -340 -128 -499 -31 -195 -31 -565 0 -760 45 -276 116 -498 237 -745 132 -269 269 -460 489 -681 221 -220 412 -357 681 -489 247 -121 469 -192 745 -237 195 -31 565 -31 760 0 276 45 498 116 745 237 269 132 460 269 681 489 220 221 357 412 489 681 88 179 132 296 180 476 63 240 78 371 78 649 0 278 -15 409 -78 649 -48 180 -92 297 -180 476 -132 269 -269 460 -489 681 -221 220 -412 357 -681 489 -246 121 -474 193 -740 235 -147 23 -475 34 -615 20z m368 -1391 c50 -29 852 -709 889 -753 44 -52 63 -105 63 -177 0 -90 -23 -152 -79 -209 -86 -89 -221 -113 -331 -61 -25 12 -121 86 -215 166 l-170 145 -5 -628 -5 -627 -27 -51 c-28 -53 -76 -101 -131 -131 -24 -14 -55 -18 -127 -18 -85 0 -100 3 -141 27 -52 31 -89 71 -122 132 -22 41 -22 46 -27 668 l-5 628 -170 -145 c-205 -175 -231 -189 -340 -190 -70 0 -86 4 -134 30 -177 98 -206 331 -59 471 41 39 730 625 814 692 62 50 106 63 200 59 64 -3 90 -8 122 -28z" fill="#8b5b29"/>
</g>
</svg>